<svg width="1024" height="1024" viewBox="0 0 1024 1024" fill="none" xmlns="http://www.w3.org/2000/svg">
<path d="M522.24 172.594V870.4L607.573 810.817V400.038L703.147 464.537V736.112C731.591 704.428 788.48 651.947 788.48 590.14V464.537L727.04 418.578L788.48 386.459V172.594C788.48 155.099 785.067 153.6 764.587 153.6C745.278 153.6 713.387 153.6 703.147 153.6V372.88L607.573 304.987V153.6L542.72 153.6C529.067 153.6 522.24 157.2 522.24 172.594Z" fill="#CD2A2E"/>
<path d="M788.48 590.14C788.48 651.947 731.591 704.428 703.147 736.112V464.537L607.573 400.038V810.817L522.24 870.4V172.594C522.24 157.2 529.067 153.6 542.72 153.6L607.573 153.6V304.987L703.147 372.88V153.6C713.387 153.6 745.278 153.6 764.587 153.6C785.067 153.6 788.48 155.099 788.48 172.594V386.459L727.04 418.578L788.48 464.537M788.48 590.14C788.48 549.404 788.48 489.431 788.48 464.537M788.48 590.14V464.537" stroke="black" stroke-width="10"/>
<path fill-rule="evenodd" clip-rule="evenodd" d="M225.28 179.2L225.28 602.516C225.28 649.164 325.655 804.225 507.154 872.601V179.2C507.154 165.525 507.154 151.85 479.654 151.85C469.342 151.85 310.071 150.71 245.905 151.85C235.592 151.85 225.28 162.79 225.28 179.2ZM318.092 582.003V216.191H397.155C419.154 216.191 424.654 234.425 424.654 243.542V721.351C366.905 688.531 318.092 614.789 318.092 582.003Z" fill="white"/>
<path d="M318.092 216.191V582.003C318.092 614.789 366.905 688.531 424.654 721.351V243.542C424.654 234.425 419.154 216.191 397.155 216.191M318.092 216.191C330.696 216.191 375.155 216.191 397.155 216.191M318.092 216.191H397.155M225.28 179.2L225.28 602.516C225.28 649.164 325.655 804.225 507.154 872.601V179.2C507.154 165.525 507.154 151.85 479.654 151.85C469.342 151.85 310.071 150.71 245.905 151.85C235.592 151.85 225.28 162.79 225.28 179.2Z" stroke="black" stroke-width="10"/>
</svg>
