<?xml version="1.0" standalone="no"?>
<!DOCTYPE svg PUBLIC "-//W3C//DTD SVG 20010904//EN"
 "http://www.w3.org/TR/2001/REC-SVG-20010904/DTD/svg10.dtd">
<svg version="1.0" xmlns="http://www.w3.org/2000/svg"
 width="1024.000000pt" height="1024.000000pt" viewBox="0 0 1024.000000 1024.000000"
 preserveAspectRatio="xMidYMid meet">
<metadata>
Created by potrace 1.14, written by Peter Selinger 2001-2017
</metadata>
<g transform="translate(0.000000,1024.000000) scale(0.100000,-0.100000)"
fill="#000000" stroke="none">
<path d="M3535 8770 c-1089 -5 -1142 -6 -1174 -24 -66 -36 -126 -116 -148
-199 -4 -12 -7 -1001 -8 -2197 -1 -1711 1 -2189 11 -2240 26 -137 114 -340
226 -525 27 -44 55 -89 61 -100 7 -10 29 -43 50 -72 20 -29 37 -57 37 -63 0
-5 4 -10 8 -10 4 0 16 -13 25 -30 10 -16 23 -35 30 -42 7 -7 27 -33 44 -58 17
-25 39 -54 50 -65 10 -11 36 -43 58 -70 22 -28 44 -55 50 -61 5 -6 37 -42 70
-80 135 -155 393 -404 587 -565 449 -375 957 -674 1510 -889 l98 -38 0 41 c1
23 1 1621 1 3552 -1 3887 5 3582 -66 3655 -52 53 -117 73 -260 80 -66 3 -633
3 -1260 0z m542 -763 c41 -22 78 -62 100 -107 17 -33 18 -177 18 -2407 1
-1305 -1 -2373 -3 -2373 -7 0 -99 66 -167 119 -121 96 -267 240 -366 361 -30
36 -56 67 -59 70 -13 12 -111 150 -153 215 -89 139 -173 317 -204 431 -4 16
-9 858 -10 1871 l-3 1841 407 -1 c367 -2 411 -4 440 -20z"/>
<path d="M5361 8748 c-83 -9 -135 -43 -164 -106 l-22 -47 -2 -3578 c-1 -2758
1 -3576 10 -3569 7 5 125 87 262 183 138 95 255 177 260 182 6 4 102 71 215
150 l205 142 1 2012 c0 1107 2 2015 5 2017 4 4 238 -148 266 -173 7 -6 15 -11
19 -11 4 0 16 -7 26 -17 10 -9 27 -21 37 -27 11 -6 82 -53 158 -105 76 -52
184 -125 241 -163 l102 -68 0 -893 c1 -490 1 -1126 0 -1412 l0 -520 26 30 c29
35 183 201 228 249 41 43 156 172 192 216 16 19 37 44 47 55 33 36 155 202
203 276 120 185 215 413 245 589 16 96 20 1446 4 1465 -5 6 -133 103 -283 215
-150 112 -270 206 -265 210 8 7 58 34 358 190 77 41 154 81 170 90 l30 17 -1
1129 c0 862 -3 1137 -12 1165 -19 56 -61 89 -129 103 -46 9 -633 14 -790 7
l-23 -1 0 -1066 c0 -587 -1 -1068 -2 -1070 -2 -1 -55 35 -118 80 -63 45 -225
161 -360 256 -363 257 -368 260 -372 284 -1 11 -3 357 -2 769 0 411 -2 747 -5
748 -31 5 -711 2 -760 -3z"/>
</g>
</svg>
